<?xml version="1.0" encoding="utf-8"?>
<!-- Generator: Adobe Illustrator 16.0.3, SVG Export Plug-In . SVG Version: 6.00 Build 0)  -->
<!DOCTYPE svg PUBLIC "-//W3C//DTD SVG 1.1//EN" "http://www.w3.org/Graphics/SVG/1.1/DTD/svg11.dtd">
<svg version="1.1" id="レイヤー_1" xmlns="http://www.w3.org/2000/svg" xmlns:xlink="http://www.w3.org/1999/xlink" x="0px"
	 y="0px" width="1750px" height="400px" viewBox="0 0 1750 400" enable-background="new 0 0 1750 400" xml:space="preserve">
<rect x="1.5" display="none" width="1749" height="400"/>
<g id="acrab">
	<g>
		<g>
			<g>
				
					<line fill="none" stroke="#FFFFFF" stroke-width="7.5331" stroke-linejoin="bevel" stroke-miterlimit="10" x1="468.043" y1="222.155" x2="495.694" y2="104.363"/>
			</g>
			<polyline fill="none" stroke="#FFFFFF" stroke-width="8" stroke-linejoin="bevel" stroke-miterlimit="10" points="
				77.862,262.086 17.232,312.729 46.654,370.315 132.438,386.026 194.516,381.674 246.048,244.764 328.063,156.686 
				359.521,133.141 496.5,104.363 496.5,64 			"/>
			
				<circle fill="none" stroke="#FFFFFF" stroke-width="8.7887" stroke-linejoin="bevel" stroke-miterlimit="10" cx="495.463" cy="45.796" r="19.773"/>
			
				<circle fill="#FFFFFF" stroke="#FFFFFF" stroke-width="3.7666" stroke-linejoin="bevel" stroke-miterlimit="10" cx="494.671" cy="105.661" r="9.052"/>
			
				<circle fill="#FFFFFF" stroke="#FFFFFF" stroke-width="4.4606" stroke-linejoin="bevel" stroke-miterlimit="10" cx="362.429" cy="133.954" r="10.72"/>
			
				<circle fill="#FFFFFF" stroke="#FFFFFF" stroke-width="3.0794" stroke-linejoin="bevel" stroke-miterlimit="10" cx="76.387" cy="262.576" r="7.4"/>
			
				<circle fill="#FFFFFF" stroke="#FFFFFF" stroke-width="3.1388" stroke-linejoin="bevel" stroke-miterlimit="10" cx="193.449" cy="381.486" r="5.962"/>
			<g>
				<path fill="#FFFFFF" stroke="#FFFFFF" stroke-miterlimit="10" d="M25.87,210.288l24.621-73.026h11.966l24.621,73.026h-10.25
					l-6.621-20.402H42.3l-6.621,20.402H25.87z M67.509,181.598l-11.28-34.429l-11.231,34.429H67.509z"/>
				<path fill="#FFFFFF" stroke="#FFFFFF" stroke-miterlimit="10" d="M112.12,211.515c-3.76,0-7.209-0.581-10.348-1.741
					c-3.139-1.16-5.837-2.918-8.092-5.272c-2.256-2.354-4.006-5.321-5.248-8.901c-1.243-3.58-1.864-7.789-1.864-12.629
					c0-4.806,0.645-8.958,1.938-12.457c1.291-3.498,3.016-6.44,5.174-8.828c2.158-2.386,4.847-4.225,8.067-5.517
					c3.22-1.292,6.677-1.937,10.373-1.937c3.008,0,5.91,0.425,8.706,1.275c2.795,0.85,5.288,1.832,7.479,2.942v10.349h-0.54
					c-0.655-0.556-1.496-1.193-2.526-1.913c-1.03-0.719-2.28-1.455-3.752-2.207c-1.275-0.653-2.78-1.226-4.512-1.717
					c-1.734-0.491-3.402-0.735-5.003-0.735c-4.774,0-8.607,1.807-11.5,5.419c-2.894,3.613-4.34,8.722-4.34,15.326
					c0,6.474,1.398,11.518,4.193,15.13c2.795,3.614,6.677,5.419,11.647,5.419c3.008,0,5.869-0.62,8.583-1.862
					c2.713-1.243,5.117-2.845,7.209-4.807h0.54v10.349c-0.917,0.425-2.06,0.939-3.434,1.544c-1.373,0.605-2.616,1.055-3.727,1.35
					c-1.569,0.456-2.976,0.809-4.217,1.054C115.682,211.392,114.081,211.515,112.12,211.515z"/>
				<path fill="#FFFFFF" stroke="#FFFFFF" stroke-miterlimit="10" d="M164.308,165.414h-0.491c-0.686-0.197-1.415-0.319-2.183-0.368
					s-1.691-0.074-2.771-0.074c-2.485,0-4.953,0.54-7.405,1.618c-2.453,1.079-4.774,2.682-6.965,4.807v38.892h-9.22v-54.782h9.22
					v8.141c3.368-2.975,6.302-5.076,8.804-6.302c2.501-1.226,4.929-1.839,7.282-1.839c0.948,0,1.659,0.024,2.134,0.074
					c0.473,0.049,1.005,0.122,1.594,0.221V165.414z"/>
				<path fill="#FFFFFF" stroke="#FFFFFF" stroke-miterlimit="10" d="M201.269,204.452c-0.753,0.556-1.758,1.333-3.017,2.329
					c-1.259,0.998-2.477,1.791-3.654,2.379c-1.635,0.851-3.212,1.503-4.732,1.962c-1.521,0.457-3.654,0.687-6.4,0.687
					c-2.256,0-4.398-0.426-6.425-1.274c-2.028-0.851-3.81-2.044-5.347-3.581c-1.471-1.504-2.647-3.359-3.53-5.565
					c-0.883-2.208-1.325-4.537-1.325-6.989c0-3.792,0.801-7.021,2.403-9.687c1.601-2.664,4.136-4.781,7.602-6.351
					c3.073-1.405,6.702-2.379,10.888-2.918c4.185-0.54,8.697-0.94,13.537-1.201v-1.766c0-2.158-0.327-3.899-0.98-5.223
					c-0.655-1.325-1.57-2.346-2.747-3.065c-1.177-0.752-2.617-1.251-4.316-1.497c-1.701-0.245-3.451-0.367-5.248-0.367
					c-2.126,0-4.627,0.318-7.504,0.957c-2.877,0.637-5.755,1.561-8.631,2.771h-0.54v-9.367c1.7-0.49,4.136-1.03,7.308-1.619
					c3.17-0.589,6.309-0.882,9.416-0.882c3.759,0,6.932,0.293,9.515,0.882c2.582,0.588,4.904,1.651,6.964,3.188
					c1.994,1.504,3.482,3.45,4.463,5.836c0.981,2.388,1.471,5.296,1.471,8.73v37.469h-9.171V204.452z M201.269,196.802v-15.204
					c-2.191,0.196-4.962,0.466-8.313,0.809c-3.353,0.343-6.057,0.826-8.117,1.447c-2.452,0.753-4.48,1.905-6.082,3.458
					c-1.603,1.553-2.403,3.72-2.403,6.498c0,3.139,0.883,5.509,2.649,7.111c1.765,1.603,4.347,2.403,7.749,2.403
					c2.91,0,5.542-0.629,7.896-1.888C197.001,200.178,199.208,198.632,201.269,196.802z"/>
				<path fill="#FFFFFF" stroke="#FFFFFF" stroke-miterlimit="10" d="M264.319,181.99c0,8.959-2.175,16.169-6.522,21.629
					c-4.35,5.46-9.793,8.189-16.332,8.189c-2.976,0-5.517-0.367-7.627-1.104c-2.108-0.735-4.193-1.725-6.253-2.967l-0.588,2.55
					h-8.632v-76.312h9.22v27.268c2.322-2.092,4.838-3.825,7.553-5.198c2.713-1.373,5.788-2.06,9.22-2.06
					c6.179,0,11.051,2.477,14.615,7.43C262.536,166.369,264.319,173.228,264.319,181.99z M254.805,182.726
					c0-6.539-0.999-11.501-2.991-14.885c-1.995-3.384-5.199-5.076-9.613-5.076c-2.519,0-5.061,0.588-7.626,1.766
					c-2.567,1.177-4.897,2.665-6.989,4.463v31.389c2.322,1.145,4.381,1.953,6.18,2.427c1.797,0.476,3.776,0.711,5.934,0.711
					c4.708,0,8.403-1.667,11.084-5.001C253.464,195.183,254.805,189.919,254.805,182.726z"/>
			</g>
		</g>
	</g>
</g>
<g>
	<path fill="#FFFFFF" d="M565.321,130.282c3.185-4.55,4.277-12.286,4.641-20.112l4.823,0.91c-0.364,8.281-1.274,16.835-4.915,21.932
		L565.321,130.282z M604.543,98.522c0,0-0.091,2.184-0.091,3.094c-1.001,22.114-2.002,30.122-4.186,32.761
		c-1.456,1.911-3.186,2.457-5.369,2.73c-1.911,0.182-4.915,0.182-7.917,0.091c-0.182-1.911-0.91-4.732-1.911-6.37
		c2.821,0.273,5.369,0.273,6.643,0.273c1.092,0,1.729-0.182,2.457-1.001c0.819-1.092,1.456-3.913,2.002-9.828l-2.912,1.183
		c-0.728-3.185-2.548-8.099-4.55-11.739l3.64-1.365c1.547,2.821,3.094,6.461,4.095,9.283c0.273-3.276,0.455-7.372,0.728-12.376
		h-26.664V57.57h32.67v7.007h-11.193v6.825h9.555v6.644h-9.555v6.825h9.555v6.643h-9.555v7.007H604.543z M580.428,111.081
		c1.001,5.278,1.456,12.104,1.274,16.563l-4.277,0.637c0.273-4.55-0.182-11.285-1.001-16.654L580.428,111.081z M577.698,64.578
		v6.825h7.371v-6.825H577.698z M585.069,78.046h-7.371v6.825h7.371V78.046z M577.698,98.522h7.371v-7.007h-7.371V98.522z
		 M585.797,125.55c-0.273-3.913-1.638-10.01-3.094-14.651l3.822-0.91c1.638,4.641,3.003,10.647,3.367,14.561L585.797,125.55z
		 M647.952,68.309c0,0,0,3.003-0.091,4.095c-0.728,42.317-1.547,56.331-4.459,60.518c-2.002,3.003-4.004,3.822-7.098,4.277
		c-2.912,0.364-7.462,0.273-11.921,0.091c-0.091-2.184-1.001-5.551-2.366-7.735c4.732,0.364,8.918,0.364,10.83,0.364
		c1.547,0.091,2.457-0.273,3.367-1.547c2.275-2.73,3.094-16.563,3.731-52.236h-24.935c-1.638,3.549-3.458,6.916-5.369,9.828h22.66
		v30.668h-16.472v5.915h-6.825V86.874c-0.546,0.819-1.092,1.547-1.638,2.275c-1.547-1.456-5.096-4.095-7.007-5.369
		c5.915-7.007,10.557-18.201,13.195-29.394l8.373,1.82c-1.001,4.095-2.275,8.19-3.731,12.104H647.952z M615.828,93.062v16.471h9.464
		V93.062H615.828z"/>
	<path fill="#FFFFFF" d="M702.36,98.158c-1.001,1.82-2.093,3.641-3.276,5.37h37.949c0,0-0.091,2.184-0.182,3.276
		c-1.456,18.201-2.821,25.208-5.369,27.938c-1.547,1.729-3.458,2.366-5.916,2.639c-2.093,0.182-5.46,0.182-8.918,0
		c-0.182-1.911-1.001-4.914-2.093-6.643c3.185,0.273,6.188,0.364,7.553,0.364c1.274,0,2.002-0.182,2.821-1.001
		c1.456-1.638,2.639-6.916,3.731-19.748h-5.369c-3.64,10.556-10.738,22.114-18.474,28.029c-1.365-1.729-3.822-3.731-5.824-5.005
		c7.189-4.642,13.56-13.833,17.291-23.024h-7.28c-4.914,9.191-13.741,18.837-22.023,24.116c-1.092-1.82-3.276-4.095-5.187-5.46
		c7.189-3.731,14.743-11.103,19.657-18.656h-7.644c-3.641,4.004-7.735,7.553-11.922,10.283c-1.092-1.456-3.913-4.186-5.551-5.46
		c2.73-1.638,5.46-3.549,7.917-5.733c-8.918,4.459-18.474,9.009-26.027,12.559l-3.185-8.463c3.185-1.274,7.28-2.912,11.648-4.823
		v-27.21h-9.919v-8.008h9.919V55.113h7.917v18.383h9.556v8.008h-9.556v23.661c2.73-1.183,5.551-2.457,8.373-3.731l2.002,7.371
		c3.458-3.094,6.461-6.734,8.828-10.647h-11.467v-7.189h56.695v7.189H702.36z M732.755,86.601h-42.043V56.751h42.043V86.601z
		 M724.929,62.849h-26.573v5.915h26.573V62.849z M724.929,74.497h-26.573v6.006h26.573V74.497z"/>
	<path fill="#FFFFFF" d="M828.86,63.031c-3.822,7.735-9.828,15.925-15.925,21.841c5.278,4.823,11.648,8.463,19.202,10.829
		c-1.82,1.547-4.277,4.915-5.46,7.099c-7.644-2.73-14.015-6.734-19.384-11.74v3.913h-34.945v-4.368
		c-6.37,6.006-13.833,10.375-21.841,13.469c-1.001-2.002-3.094-5.005-4.641-6.643c6.461-2.093,12.559-5.37,17.928-9.556
		c-2.548-2.457-6.37-5.46-9.828-7.917c-1.183,0.91-2.366,1.82-3.64,2.73c-1.183-1.729-3.731-4.277-5.46-5.46
		c10.192-6.552,17.2-15.379,20.84-22.933l8.099,1.456c-0.728,1.456-1.547,2.821-2.457,4.277h11.558l1.365-0.364l5.187,2.184
		c-2.912,10.375-7.735,18.747-13.833,25.481h28.029c-6.916-7.917-11.83-18.11-15.289-30.213l7.554-1.729
		c2.457,9.191,6.37,17.291,11.739,23.934c3.458-3.64,6.916-8.099,9.373-12.376h-16.38v-7.007h21.022l1.547-0.455L828.86,63.031z
		 M772.984,117.086c-4.459,7.554-11.739,14.834-18.383,19.384c-1.547-1.547-4.823-4.459-6.825-5.824
		c6.734-3.822,13.196-9.828,16.835-16.107L772.984,117.086z M793.278,111.444v17.837c0,4.277-0.91,6.552-4.187,7.735
		c-3.276,1.274-8.008,1.274-15.015,1.274c-0.455-2.275-1.638-5.642-2.821-7.826c5.005,0.182,10.283,0.182,11.648,0.091
		c1.456,0,1.911-0.364,1.911-1.456v-17.655h-30.122v-7.735h69.071v7.735H793.278z M758.423,76.135
		c3.367,2.366,7.28,5.187,10.01,7.553c1.547-1.547,2.912-3.185,4.277-4.823c-2.548-2.093-6.552-4.732-10.192-7.007
		C761.245,73.314,759.879,74.77,758.423,76.135z M767.523,65.852l-1.365,1.82c3.367,1.911,7.28,4.277,9.919,6.188
		c1.547-2.457,2.821-5.187,3.913-8.008H767.523z M809.567,114.356c6.461,5.005,14.561,12.468,18.383,17.564l-7.189,4.823
		c-3.549-4.915-11.466-12.65-17.928-18.019L809.567,114.356z"/>
	<path fill="#FFFFFF" d="M893.442,67.217c1.001,0,2.275,0,3.64-0.182c-0.182-0.728-0.273-1.638-0.273-2.457
		c0-5.733,4.732-10.465,10.465-10.465c5.824,0,10.556,4.732,10.556,10.465c0,5.824-4.732,10.465-10.556,10.465
		c-0.819,0-1.638-0.091-2.366-0.273l-0.455,1.729c-2.093,9.283-6.097,23.934-13.468,33.581c-7.827,10.192-19.02,19.11-34.854,24.479
		l-7.645-8.736c14.834-3.822,26.482-11.83,33.944-21.294c6.279-7.917,10.192-19.839,11.375-28.12h-44.773
		c-3.822,0-7.462,0.182-9.829,0.364V66.58c2.639,0.273,6.917,0.637,9.919,0.637H893.442z M913.008,64.578
		c0-3.094-2.548-5.733-5.733-5.733c-3.094,0-5.642,2.639-5.642,5.733s2.548,5.642,5.642,5.642
		C910.46,70.22,913.008,67.672,913.008,64.578z"/>
	<path fill="#FFFFFF" d="M991.941,86.964c-0.546,1.001-1.274,2.366-1.456,3.186c-2.548,8.827-6.644,18.019-13.377,25.48
		c-9.374,10.375-20.931,16.108-32.58,19.384l-7.098-8.19c13.287-2.73,24.389-8.646,31.851-16.381
		c5.188-5.369,8.463-12.194,10.102-18.201h-46.321c-2.184,0-6.188,0.091-9.646,0.364v-9.464c3.549,0.364,7.007,0.637,9.646,0.637
		h46.594c2.457,0,4.641-0.364,5.824-0.819L991.941,86.964z M931.697,61.938c2.366,0.273,5.733,0.455,8.736,0.455h35.4
		c2.912,0,6.644-0.182,8.918-0.455v9.374c-2.275-0.182-5.915-0.273-9.009-0.273h-35.309c-2.912,0-6.188,0.091-8.736,0.273V61.938z"
		/>
	<path fill="#FFFFFF" d="M1069.91,119.635c-6.734-5.369-18.474-12.649-27.574-17.2v21.568c0,3.458,0.273,8.008,0.455,10.83h-10.375
		c0.364-2.639,0.637-7.372,0.637-10.83v-19.111c-8.736,5.005-19.293,9.829-29.758,13.469l-5.278-8.736
		c16.29-4.823,28.302-10.83,37.038-16.29c7.645-4.823,14.833-11.103,17.746-14.379h-35.491c-3.185,0-8.646,0.091-11.466,0.364
		v-9.555c3.185,0.455,8.19,0.637,11.375,0.637h16.017V65.67c0-2.73-0.182-6.188-0.546-8.373h10.375
		c-0.273,2.093-0.546,5.733-0.546,8.373v4.732h14.561c2.457,0,4.732-0.273,6.552-0.728l5.005,5.733
		c-1.911,2.002-4.368,4.459-6.188,6.279c-3.822,3.913-9.374,9.009-15.198,13.559c9.101,4.368,20.931,11.375,28.666,16.654
		L1069.91,119.635z"/>
	<path fill="#FFFFFF" d="M1151.209,73.223c-0.819,1.456-1.911,3.731-2.548,5.551c-3.822,11.557-8.555,22.022-15.835,31.123
		c-9.009,11.648-21.386,20.931-33.216,25.754l-8.281-7.371c11.557-3.914,21.841-11.194,30.395-20.021
		c-5.188-3.822-12.013-8.372-18.565-12.376l6.006-6.825c6.461,3.64,13.287,8.008,18.747,11.831
		c5.096-7.28,8.828-16.108,10.557-23.115h-28.757c-5.551,8.19-13.377,17.382-22.66,23.934l-8.1-5.915
		c15.107-10.102,25.117-25.481,28.12-32.67c1.092-2.184,1.82-4.823,2.457-7.28l10.739,3.367c-1.456,2.548-2.73,4.914-3.822,7.189
		c-0.455,1.001-1.001,2.093-1.638,3.185h22.66c2.639,0,5.096-0.273,6.734-1.001L1151.209,73.223z"/>
	<path fill="#FFFFFF" d="M1178.999,61.575c-0.182,1.911-0.364,4.186-0.364,6.734v30.486c0,2.366,0.182,5.551,0.364,7.372h-10.647
		c0.091-1.547,0.364-4.732,0.364-7.372V68.309c0-1.638-0.091-4.823-0.364-6.734H1178.999z M1221.042,60.847
		c-0.182,2.366-0.364,5.096-0.364,8.372v16.199c0,20.84-3.276,28.575-10.01,36.219c-5.916,6.917-15.106,11.103-21.75,13.287
		l-6.643-8.281c7.826-2.093,15.562-5.278,21.113-11.466c6.37-7.28,7.553-14.379,7.553-30.304V69.219
		c0-3.276-0.273-6.006-0.546-8.372H1221.042z"/>
	<path fill="#FFFFFF" d="M1308.412,75.407c-0.637,1.547-1.274,4.459-1.547,6.188c-1.365,7.917-3.913,18.201-8.736,26.664
		c-7.007,12.649-20.112,22.023-36.493,26.482l-7.462-8.645c3.458-0.546,7.644-1.729,10.92-3.003
		c8.372-2.821,17.473-9.009,22.933-17.108c4.732-7.28,7.372-17.2,8.373-25.117h-48.414v14.925c0,1.82,0.091,4.459,0.364,6.006
		h-9.919c0.182-1.911,0.364-4.55,0.364-6.553V79.32c0-2.002-0.091-5.278-0.364-7.372c2.821,0.273,5.46,0.455,8.827,0.455h19.839
		v-7.826c0-2.275-0.091-4.277-0.637-7.553h11.012c-0.364,3.276-0.546,5.278-0.546,7.553v7.826h18.382c3.64,0,5.46-0.455,6.825-0.91
		L1308.412,75.407z"/>
	<path fill="#FFFFFF" d="M1379.61,134.104c-1.184-3.185-2.821-7.189-4.732-11.375c-14.47,1.729-43.591,4.914-55.421,6.006
		c-2.275,0.273-5.278,0.729-8.008,1.092l-1.638-10.556c2.821,0,6.37,0,9.1-0.182c1.092-0.091,2.366-0.091,3.731-0.182
		c5.096-13.014,13.741-40.224,16.29-49.415c1.274-4.368,1.638-6.825,2.002-9.464l11.375,2.366c-1.001,2.457-2.093,5.187-3.458,9.191
		c-2.73,8.646-11.012,34.399-15.562,46.412c12.376-1.092,27.755-2.821,37.494-4.095c-3.459-6.916-7.189-13.559-10.375-17.746
		l8.827-3.822c6.37,9.556,16.108,27.665,20.021,37.403L1379.61,134.104z"/>
	<path fill="#FFFFFF" d="M1444.266,121.975V130h-44.948c-0.063-2.01,0.263-3.943,0.974-5.798c1.145-3.062,2.977-6.077,5.497-9.045
		s6.162-6.401,10.925-10.298c7.391-6.061,12.385-10.862,14.982-14.403c2.598-3.541,3.896-6.888,3.896-10.042
		c0-3.309-1.183-6.1-3.549-8.373c-2.365-2.273-5.45-3.41-9.254-3.41c-4.021,0-7.236,1.206-9.648,3.618s-3.634,5.752-3.664,10.02
		l-8.582-0.881c0.587-6.401,2.799-11.279,6.633-14.635c3.835-3.355,8.983-5.033,15.447-5.033c6.524,0,11.689,1.809,15.493,5.427
		s5.706,8.103,5.706,13.452c0,2.722-0.557,5.397-1.67,8.025c-1.113,2.629-2.962,5.397-5.544,8.303
		c-2.582,2.907-6.873,6.896-12.872,11.968c-5.01,4.206-8.227,7.059-9.648,8.558c-1.423,1.5-2.598,3.008-3.525,4.523H1444.266z"/>
	<path fill="#FFFFFF" d="M1450.825,96.462c0-8.04,0.826-14.511,2.481-19.413c1.653-4.901,4.112-8.682,7.375-11.342
		c3.263-2.659,7.368-3.989,12.315-3.989c3.649,0,6.85,0.735,9.603,2.203c2.752,1.469,5.025,3.588,6.819,6.355
		c1.793,2.768,3.2,6.139,4.221,10.112s1.531,9.332,1.531,16.073c0,7.979-0.82,14.419-2.459,19.32
		c-1.64,4.902-4.09,8.69-7.353,11.365s-7.383,4.012-12.362,4.012c-6.556,0-11.705-2.35-15.446-7.051
		C1453.066,118.449,1450.825,109.234,1450.825,96.462z M1459.406,96.462c0,11.164,1.306,18.594,3.92,22.289
		c2.612,3.696,5.837,5.543,9.671,5.543c3.835,0,7.059-1.855,9.672-5.566s3.92-11.133,3.92-22.266c0-11.194-1.307-18.631-3.92-22.312
		c-2.613-3.68-5.867-5.52-9.764-5.52c-3.835,0-6.896,1.624-9.186,4.871C1460.845,77.645,1459.406,85.299,1459.406,96.462z"/>
	<path fill="#FFFFFF" d="M1529.845,130h-8.35V76.794c-2.01,1.918-4.646,3.835-7.908,5.752c-3.264,1.918-6.193,3.356-8.791,4.314
		v-8.071c4.67-2.195,8.752-4.854,12.246-7.979c3.495-3.123,5.969-6.153,7.422-9.092h5.381V130z"/>
	<path fill="#FFFFFF" d="M1588.683,78.649l-8.303,0.649c-0.742-3.277-1.794-5.659-3.154-7.144c-2.258-2.381-5.041-3.572-8.35-3.572
		c-2.66,0-4.994,0.742-7.004,2.227c-2.629,1.918-4.701,4.716-6.217,8.396c-1.515,3.681-2.304,8.922-2.365,15.725
		c2.01-3.062,4.469-5.334,7.375-6.819c2.907-1.484,5.953-2.227,9.139-2.227c5.566,0,10.305,2.049,14.218,6.146
		c3.911,4.098,5.868,9.394,5.868,15.888c0,4.268-0.921,8.233-2.761,11.898c-1.84,3.664-4.368,6.471-7.584,8.419
		c-3.217,1.948-6.865,2.922-10.947,2.922c-6.958,0-12.633-2.559-17.024-7.677c-4.391-5.118-6.586-13.552-6.586-25.304
		c0-13.143,2.427-22.698,7.282-28.667c4.236-5.195,9.942-7.793,17.116-7.793c5.351,0,9.733,1.5,13.151,4.5
		C1585.953,69.218,1588.003,73.361,1588.683,78.649z M1554.589,107.966c0,2.876,0.61,5.629,1.832,8.257
		c1.222,2.629,2.93,4.631,5.126,6.007c2.195,1.376,4.499,2.064,6.911,2.064c3.525,0,6.557-1.422,9.092-4.268
		c2.536-2.845,3.805-6.71,3.805-11.597c0-4.7-1.253-8.403-3.758-11.11c-2.505-2.706-5.659-4.059-9.463-4.059
		c-3.773,0-6.974,1.353-9.602,4.059C1555.903,100.026,1554.589,103.575,1554.589,107.966z"/>
	<path fill="#FFFFFF" d="M596.75,241.975V275.1c0,6-1.375,9.125-5,10.875s-9.125,2.125-17.5,2c-0.5-2.875-1.875-7.625-3.375-10.625
		c5.125,0.125,10.375,0.125,12,0.125c1.75-0.125,2.25-0.625,2.25-2.375v-29.25c-5.125,1.75-10,3.375-14.5,4.75l-3.875-12
		c5.125-1.125,11.375-2.875,18.375-4.75V208.1H568.25v-10.75h16.875v-23.625h11.625v23.625h13.5v10.75h-13.5v22.5l12-3.5
		l1.625,10.25L596.75,241.975z M675.125,229.725C670.75,244.85,663.5,256.6,653.875,265.6c8.75,5.625,19,9.75,30.625,12.25
		c-2.5,2.5-6,7.375-7.625,10.625c-12.5-3.25-23.375-8.25-32.5-15c-10,7-21.75,11.875-34.5,15.25c-1.125-3-4-8-6.25-10.375
		c11.625-2.5,22.5-6.625,31.875-12.625c-7.25-7.25-13-15.875-17.375-25.875l7.5-2.25H614.5v-10.75h50.75l2.125-0.5L675.125,229.725z
		 M632.625,191.475c0,11.25-3.25,25.25-17.375,34.25c-1.5-2.25-5.75-6.625-8-8.25c12.5-7.625,14.375-17.75,14.375-26.375v-12.625
		h42.25V207.1c0,3.125,0.25,3.5,2.25,3.5h5c2.125,0,2.625-1.75,2.875-13.75c2.375,1.875,7,3.625,9.875,4.25
		c-0.875,15.5-3.75,19.5-11.5,19.5h-8.125c-9,0-11.75-3-11.75-13.5v-17.875h-19.875V191.475z M629,237.6c3.75,8,9,15,15.625,21
		c6.5-5.75,11.75-12.75,15.375-21H629z"/>
	<path fill="#FFFFFF" d="M716.85,264.1c-3.75,8-9.75,16.375-15.375,21.625c-1.875-1.75-5.875-4.875-8.375-6.125
		c5.75-4.875,10.75-11.375,13.75-18.125L716.85,264.1z M765.1,227.225h-70.75V218.1h30.25v-6.375h-21.875V178.1h55.75v33.625H735.35
		v6.375h29.75V227.225z M735.225,259.35v18.75c0,4.875-0.875,7.5-4.625,9c-3.625,1.625-8.25,1.75-15.5,1.75
		c-0.625-2.875-2.5-7-4-9.5c5.125,0.125,10.125,0.125,11.625,0.125c1.5-0.125,1.875-0.375,1.875-1.625v-18.5h-21v-25.875h53.875
		v25.875H735.225z M713.1,191.6h34.625v-6.625H713.1V191.6z M713.1,204.85h34.625v-6.75H713.1V204.85z M713.6,251.35h33.25v-10
		H713.6V251.35z M809.6,248.6c-9.5,17.5-25.375,31.375-43.25,40.25c-1.5-2.5-4.25-6-6.875-8.5l-5.25,3
		c-2.5-4.75-8.125-12.125-12.75-17.5l8.5-4.5c4.375,4.625,9.625,11,12.5,15.625c14.875-7.375,28.5-19,35.875-32.75L809.6,248.6z
		 M803.475,180.35c-8.25,11.375-21.125,22.125-32.75,29.125c-2-2.625-5.5-6.25-8.625-8.5c10.875-5.875,23.625-15.75,30.5-25.25
		L803.475,180.35z M806.225,214.6c-9,11.75-22.625,23.125-34.875,30.25c-2-2.625-5.375-6.375-8.5-8.625
		c11.5-6,25.25-16.375,32.625-26.25L806.225,214.6z"/>
	<path fill="#FFFFFF" d="M925.5,250.6c-3.625,7.375-8.375,13.875-14.25,19.625c3.125,5.125,6.625,8,10.625,8
		c3.125,0,4.5-2.75,5.125-13.375c2,2.25,5.625,4.25,8,5.25c-1.75,14.125-5,18-13.875,18c-7.25,0-13-4.125-17.625-11.25
		c-6.25,4.625-13.25,8.5-20.875,11.625c-1.25-2-4.125-5.625-6.125-7.5c8.625-3.125,16.25-7.5,22.625-12.75
		c-2.5-6.25-4.5-13.75-6.125-22.25h-17c-0.25,2.125-0.5,4.25-0.75,6.375c5.875,3.75,12.75,8.625,16.375,12.25l-6.5,7.625
		c-2.625-2.75-7.125-6.375-11.75-9.875c-2.75,10.625-7.5,19.875-16.5,26.375c-1.5-2.5-4.5-6.25-7-8c11.125-7.75,14.5-21,15.75-34.75
		h-8.375v-7l-4.5,6.25c-1.5-3.875-4.625-10.5-7.5-16.25v58.25h-10.5V236.35c-3.25,11-7.375,21.25-11.75,28.125
		c-1.125-3-4-7.25-5.625-9.75c6.875-10.375,13.25-29,16.375-44.625h-13.625v-10.625h14.625V173.1h10.5v26.375h12.5V210.1h-12.5v5.25
		c3.25,4.75,11.125,17.75,13.25,21.5h33c-2.75-18.125-3.75-39.875-3.875-63.125h10.25c-0.125,7.375,0,14.5,0.25,21.5l4.375-5.375
		l2,1.625c2.625-5.375,5.5-12,7-16.875l8.75,3.75c-3.5,6-7,12.875-10,17.875c1.625,1.5,3.125,3.125,4.5,4.5
		c2.75-4.75,5.25-9.5,7.125-13.5l8.125,4c-5.125,8.375-11.375,18.25-17.125,26.125l10.5-0.75c-0.875-2.125-1.875-4.125-2.75-6
		l6.625-2.875c3.25,5.875,6.375,13.625,7.125,18.5l-6.875,3.5c-0.25-1.625-0.75-3.5-1.375-5.5c-4.375,0.5-8.625,1-12.75,1.5
		c4.25,2.5,9.125,6,11.625,8.75l-2.25,2.375h9.625v9.125H903.25c1,5.5,2.375,10.25,3.75,14.5c3.5-4.125,6.5-8.625,8.625-13.5
		L925.5,250.6z M859.625,219.35c2.5-3.25,5.25-7.25,8-11.5c-3.125-3.875-8-8.75-12.5-12.25l5-6l2,1.625
		c2.625-5.375,5.375-12,7-16.875l8.75,3.75c-3.5,6-7,12.875-10,17.875c1.625,1.5,3.125,3,4.375,4.375
		c2.75-4.75,5.25-9.375,7.125-13.375l8.25,4c-5.5,8.875-12.25,19.5-18.5,27.75l9.875-0.75c-0.75-2.25-1.75-4.5-2.625-6.625
		l6.625-2.625c3,6,5.75,13.75,6.375,18.625l-7,3.25c-0.25-1.375-0.5-3-1-4.75c-8.5,1.125-16.625,2-24,2.75l-1.625-9L859.625,219.35z
		 M903.375,218.1c2.125-2.875,4.5-6.25,6.75-9.875c-2.875-3.75-7.625-8.375-12-11.875c0.25,7.75,0.625,15.125,1.25,22L903.375,218.1
		z M899.375,218.475c0.625,6.625,1.375,12.75,2.25,18.375h13.75c-2.625-2.125-5.5-4.375-8.25-6.125L912,225.85l-11,1.125
		L899.375,218.475z"/>
	<path fill="#FFFFFF" d="M984.462,212.85h28.75v10.625h-28.75V234.6h25v32.875c0,4.75-0.75,7.75-4,9.5s-8,1.875-14.5,1.75
		c-0.25-2.875-1.625-7.125-3.125-9.875c4.5,0.125,8.25,0.125,9.5,0c1.25,0,1.625-0.375,1.625-1.625v-22.25h-14.5v43.25h-11v-43.25
		h-13.625v33.375h-10.375V234.6h24v-11.125h-29.375V212.85h8.625c-2.375-1.375-7-3-9.75-4c5.5-8.25,9.625-20.625,12-32.5
		l10.875,2.25c-1,4.125-2.125,8.375-3.25,12.375h10.875V174.35h11v16.625h23.875v10.5h-23.875V212.85z M973.462,212.85v-11.375
		h-14.625c-1.625,4.25-3.5,8.25-5.5,11.375H973.462z M1031.587,253.725h-10.75V184.6h10.75V253.725z M1054.087,175.35v98.125
		c0,7-1.5,10.25-5.625,12.25c-4,2-11,2.25-20.375,2.25c-0.5-3.125-2.125-8.5-3.75-11.875c7,0.25,13.75,0.25,15.875,0.125
		c2,0,2.625-0.625,2.625-2.625v-98.25H1054.087z"/>
	<path fill="#FFFFFF" d="M1145.625,264.6l0.5,9.875c-17.125,2.75-35.125,5.5-48.5,7.375l-2.625-10.5l6.5-0.75v-37.375h9v36.125
		l8.625-1.125V225.1h-20.25v-10.75h20.25V197.1h-7.5c-2.375,5.625-5,10.75-7.875,14.875c-1.5-1.25-4.375-3.375-6.875-4.875
		c-1.75,3.375-3.625,6.75-5.75,10.125v71.25h-10.75v-56c-3,3.875-6,7.375-9,10.375c-1.375-2.25-4.875-7.375-7-9.75
		c9.125-8.5,18.875-21.5,24.75-34.25l8.75,2.875c4.625-7.75,8.125-17.875,10.25-28l10.25,2.25c-0.875,3.625-1.875,7.25-3,10.75
		h28.375V197.1h-14.5v17.25h15v10.75h-15v13h14.5v10h-14.5v18.75L1145.625,264.6z M1097.375,177.35
		c-6.375,10.5-16.25,22-25.25,29.375c-1.5-2.5-4.5-6.625-6.25-8.75c7.75-6.25,16.5-16.25,20.875-24.375L1097.375,177.35z
		 M1180.125,258.35c0,4.75-0.875,7.875-3.75,9.625c-3,1.75-6.75,2-12.25,2c-0.375-2.75-1.875-7.5-3.375-10.25
		c3.375,0.125,6.375,0.125,7.5,0.125s1.5-0.375,1.5-1.625v-64.75h-11.625v94.875h-10.5V183.1h32.5V258.35z"/>
	<path fill="#FFFFFF" d="M1271.325,280.35c0-1.75,0.125-4.125,0.125-6.75h-59.25c-5.125,0-11.375,0.25-15,0.5v-14.125
		c3.625,0.25,9.125,0.625,14.5,0.625h59.875v-55.75H1213.2c-4.875,0-11.25,0.25-14.5,0.5v-13.875c4.375,0.375,10.375,0.75,14.5,0.75
		h62.125c3.375,0,7.75-0.125,10-0.25c-0.125,2.75-0.25,7.25-0.25,10.5V267.1c0,4.375,0.25,10.5,0.5,13.25H1271.325z"/>
	<path fill="#FFFFFF" d="M1354.888,251.475c20.125-12.375,35.75-31.125,43.375-47.125l7.625,13.625
		c-9,16.25-24.375,33.25-43.875,45.25c-12.625,7.75-28.5,15.125-47.875,18.625l-8.375-12.875
		C1326.638,265.85,1342.888,258.85,1354.888,251.475z M1349.513,212.475l-9.875,10.25c-6.5-6.75-21.75-19.75-31.125-26l9.125-9.75
		C1326.013,192.475,1342.763,205.6,1349.513,212.475z"/>
	<path fill="#FFFFFF" d="M1426.3,186.475c5.875,8.375,16.75,27.625,21.25,36l-12.75,7.25c-4.875-10.125-14.625-28-21-36.75
		L1426.3,186.475z M1490.55,198.225c0.875-4.375,1.5-10,1.5-12.5l15.625,2.875c-1.25,3.875-2.625,9.375-3.25,11.375
		c-7.625,31-24.75,63.875-60.625,82.75l-11.625-10C1470.425,255.6,1485.925,220.35,1490.55,198.225z"/>
	<path fill="#FFFFFF" d="M1520.638,222.725c4.125,0.25,11.875,0.75,18.625,0.75h68c6,0,10.875-0.5,14-0.75v15.5
		c-2.75-0.125-8.5-0.625-14-0.625h-68c-6.875,0-14.375,0.25-18.625,0.625V222.725z"/>
	<path fill="#FFFFFF" d="M1625.338,273.975c10.75-7.625,17.375-18.25,21-29.75c3.625-11.125,3.625-34.25,3.625-48.625
		c0-4.25-0.25-7.25-1-10.125h14.5c-0.125,1-0.625,5.625-0.625,10c0,14.25-0.5,39.625-3.875,52.125c-3.75,13.75-11.625,26-22.25,35
		L1625.338,273.975z M1682.338,275.725c0.5-2.125,0.875-5,0.875-7.875V195.1c0-5.125-0.75-9.25-0.75-10h14.5
		c-0.125,0.75-0.625,4.875-0.625,10v67.875c10.875-4.875,25-15.5,34-28.75l7.625,10.75c-10.625,14.125-28.25,27.25-42.625,34.5
		c-2.125,1.125-3.375,2.125-4.75,3.125L1682.338,275.725z"/>
</g>
<g>
	<path fill="#FFFFFF" d="M1054.006,323.599c3.092,0,6.111,0.794,9.058,2.38c2.945,1.588,5.24,3.857,6.885,6.813
		c1.644,2.953,2.466,6.034,2.466,9.24c0,3.174-0.811,6.226-2.43,9.155s-3.89,5.204-6.812,6.823c-2.922,1.62-5.978,2.43-9.167,2.43
		c-3.19,0-6.246-0.81-9.168-2.43c-2.922-1.619-5.196-3.894-6.823-6.823c-1.628-2.93-2.441-5.981-2.441-9.155
		c0-3.206,0.825-6.287,2.478-9.24c1.652-2.955,3.951-5.225,6.897-6.813C1047.894,324.393,1050.913,323.599,1054.006,323.599z
		 M1054.006,326.65c-2.588,0-5.107,0.664-7.557,1.99s-4.366,3.223-5.749,5.688c-1.384,2.467-2.075,5.034-2.075,7.703
		c0,2.653,0.679,5.196,2.038,7.629c1.359,2.434,3.26,4.33,5.701,5.689s4.988,2.038,7.642,2.038c2.652,0,5.2-0.679,7.642-2.038
		s4.337-3.256,5.688-5.689c1.351-2.433,2.026-4.976,2.026-7.629c0-2.669-0.688-5.236-2.063-7.703
		c-1.375-2.465-3.292-4.361-5.749-5.688C1059.092,327.314,1056.577,326.65,1054.006,326.65z M1059.914,345.01l3.003,0.879
		c-0.488,2.035-1.526,3.658-3.113,4.871s-3.512,1.818-5.773,1.818c-2.865,0-5.192-0.928-6.982-2.783
		c-1.791-1.855-2.686-4.427-2.686-7.715c0-2.148,0.406-4.016,1.221-5.604c0.813-1.586,1.973-2.783,3.479-3.588
		c1.506-0.807,3.227-1.209,5.164-1.209c2.164,0,3.963,0.518,5.396,1.551c1.432,1.033,2.408,2.438,2.93,4.211l-2.905,0.708
		c-0.488-1.204-1.209-2.128-2.161-2.771s-2.071-0.965-3.356-0.965c-1.872,0-3.414,0.668-4.627,2.002
		c-1.213,1.335-1.818,3.247-1.818,5.737s0.573,4.374,1.721,5.651c1.147,1.278,2.633,1.917,4.456,1.917
		c1.465,0,2.75-0.423,3.857-1.27C1058.823,347.605,1059.556,346.459,1059.914,345.01z"/>
	<path fill="#FFFFFF" d="M1102.312,355.776V360h-23.657c-0.033-1.058,0.138-2.075,0.513-3.052c0.602-1.611,1.566-3.198,2.893-4.761
		s3.243-3.369,5.75-5.42c3.89-3.189,6.519-5.717,7.886-7.58s2.051-3.626,2.051-5.286c0-1.741-0.623-3.21-1.868-4.407
		c-1.245-1.195-2.868-1.794-4.87-1.794c-2.116,0-3.809,0.635-5.078,1.904s-1.913,3.027-1.929,5.273l-4.517-0.464
		c0.309-3.369,1.473-5.937,3.491-7.703c2.018-1.766,4.728-2.648,8.13-2.648c3.434,0,6.152,0.952,8.154,2.856s3.003,4.265,3.003,7.08
		c0,1.433-0.293,2.841-0.879,4.224c-0.586,1.384-1.559,2.84-2.918,4.37s-3.617,3.63-6.774,6.299
		c-2.637,2.214-4.33,3.716-5.078,4.505c-0.749,0.789-1.367,1.582-1.855,2.38H1102.312z"/>
	<path fill="#FFFFFF" d="M1106.118,342.349c0-4.231,0.436-7.638,1.307-10.218c0.87-2.579,2.164-4.568,3.882-5.969
		c1.717-1.399,3.877-2.1,6.481-2.1c1.921,0,3.605,0.387,5.054,1.16s2.645,1.888,3.589,3.344c0.944,1.457,1.685,3.231,2.222,5.322
		c0.537,2.092,0.806,4.912,0.806,8.46c0,4.199-0.432,7.589-1.294,10.169s-2.152,4.573-3.869,5.98
		c-1.718,1.408-3.887,2.112-6.507,2.112c-3.45,0-6.16-1.237-8.13-3.711C1107.298,353.921,1106.118,349.07,1106.118,342.349z
		 M1110.635,342.349c0,5.876,0.688,9.786,2.063,11.731c1.375,1.945,3.071,2.917,5.09,2.917s3.715-0.977,5.091-2.93
		c1.375-1.953,2.063-5.859,2.063-11.719c0-5.892-0.688-9.806-2.063-11.743c-1.376-1.937-3.089-2.905-5.14-2.905
		c-2.019,0-3.63,0.854-4.834,2.563C1111.392,332.445,1110.635,336.473,1110.635,342.349z"/>
	<path fill="#FFFFFF" d="M1148.113,360h-4.395v-28.003c-1.058,1.009-2.445,2.019-4.162,3.027c-1.718,1.009-3.26,1.767-4.627,2.271
		v-4.248c2.458-1.155,4.606-2.555,6.445-4.199c1.839-1.644,3.142-3.238,3.906-4.785h2.832V360z"/>
	<path fill="#FFFFFF" d="M1179.496,332.974l-4.37,0.342c-0.391-1.726-0.944-2.979-1.66-3.76c-1.188-1.253-2.653-1.88-4.395-1.88
		c-1.399,0-2.629,0.391-3.687,1.172c-1.384,1.01-2.474,2.482-3.271,4.419s-1.213,4.696-1.245,8.276
		c1.058-1.611,2.352-2.808,3.882-3.589s3.133-1.172,4.81-1.172c2.93,0,5.424,1.079,7.483,3.235c2.059,2.156,3.088,4.943,3.088,8.361
		c0,2.246-0.484,4.334-1.452,6.262c-0.969,1.93-2.3,3.406-3.992,4.432s-3.613,1.538-5.762,1.538c-3.662,0-6.648-1.347-8.96-4.04
		s-3.467-7.133-3.467-13.318c0-6.917,1.277-11.946,3.833-15.088c2.229-2.734,5.232-4.102,9.009-4.102
		c2.815,0,5.123,0.789,6.922,2.368C1178.06,328.01,1179.138,330.19,1179.496,332.974z M1161.552,348.403
		c0,1.514,0.321,2.962,0.965,4.346c0.643,1.384,1.542,2.438,2.697,3.161c1.155,0.725,2.368,1.087,3.638,1.087
		c1.855,0,3.45-0.749,4.785-2.246s2.002-3.532,2.002-6.104c0-2.474-0.659-4.423-1.978-5.847s-2.979-2.137-4.98-2.137
		c-1.985,0-3.67,0.713-5.054,2.137S1161.552,346.092,1161.552,348.403z"/>
	<path fill="#FFFFFF" d="M1199.979,360v-35.791h4.736v17.749l17.773-17.749h6.421l-15.015,14.502L1229.569,360h-6.25l-12.744-18.115
		l-5.859,5.713V360H1199.979z"/>
	<path fill="#FFFFFF" d="M1234.133,360v-5.005h5.005V360H1234.133z"/>
	<path fill="#FFFFFF" d="M1247.092,360v-35.791h4.736V360H1247.092z"/>
	<path fill="#FFFFFF" d="M1268.227,356.069l0.635,3.882c-1.237,0.26-2.344,0.391-3.32,0.391c-1.596,0-2.832-0.252-3.711-0.757
		s-1.498-1.167-1.855-1.989c-0.358-0.822-0.537-2.552-0.537-5.188V337.49h-3.223v-3.418h3.223v-6.421l4.37-2.637v9.058h4.419v3.418
		h-4.419v15.161c0,1.253,0.077,2.06,0.231,2.417c0.154,0.358,0.407,0.643,0.757,0.854s0.851,0.317,1.502,0.317
		C1266.786,356.24,1267.429,356.184,1268.227,356.069z"/>
	<path fill="#FFFFFF" d="M1269.697,347.036c0-4.802,1.334-8.357,4.004-10.669c2.229-1.92,4.947-2.881,8.154-2.881
		c3.564,0,6.478,1.168,8.74,3.504c2.262,2.336,3.394,5.563,3.394,9.68c0,3.337-0.501,5.961-1.502,7.873
		c-1.001,1.913-2.458,3.398-4.37,4.456s-4,1.587-6.262,1.587c-3.63,0-6.563-1.164-8.802-3.491S1269.697,351.414,1269.697,347.036z
		 M1274.214,347.036c0,3.32,0.724,5.807,2.173,7.458c1.448,1.652,3.271,2.479,5.469,2.479c2.181,0,3.995-0.83,5.444-2.49
		c1.448-1.66,2.173-4.191,2.173-7.593c0-3.206-0.729-5.636-2.186-7.288c-1.457-1.651-3.268-2.478-5.432-2.478
		c-2.197,0-4.021,0.822-5.469,2.466C1274.938,341.234,1274.214,343.716,1274.214,347.036z"/>
	<path fill="#FFFFFF" d="M1298.433,360v-5.005h5.005V360c0,1.839-0.325,3.324-0.977,4.455s-1.685,2.006-3.101,2.625l-1.221-1.88
		c0.928-0.407,1.611-1.005,2.051-1.794c0.439-0.79,0.684-1.926,0.732-3.406H1298.433z"/>
	<path fill="#FFFFFF" d="M1334.736,360v-31.567h-11.792v-4.224h28.369v4.224h-11.841V360H1334.736z"/>
	<path fill="#FFFFFF" d="M1351.036,360v-5.005h5.005V360H1351.036z"/>
	<path fill="#FFFFFF" d="M1363.558,360v-35.791h7.129l8.472,25.342c0.781,2.36,1.351,4.126,1.709,5.298
		c0.406-1.302,1.041-3.214,1.904-5.737l8.569-24.902h6.372V360h-4.565v-29.956l-10.4,29.956h-4.272l-10.352-30.469V360H1363.558z"/>
	<path fill="#FFFFFF" d="M1421.247,356.802c-1.628,1.384-3.194,2.36-4.7,2.93s-3.121,0.854-4.846,0.854
		c-2.849,0-5.038-0.695-6.567-2.088c-1.53-1.391-2.295-3.169-2.295-5.334c0-1.27,0.288-2.43,0.866-3.479
		c0.578-1.051,1.335-1.893,2.271-2.527s1.99-1.115,3.162-1.44c0.862-0.228,2.164-0.447,3.906-0.659
		c3.548-0.423,6.16-0.928,7.837-1.514c0.016-0.602,0.024-0.984,0.024-1.147c0-1.79-0.415-3.052-1.245-3.784
		c-1.123-0.992-2.792-1.489-5.005-1.489c-2.067,0-3.594,0.362-4.578,1.087s-1.713,2.006-2.185,3.845l-4.297-0.586
		c0.391-1.839,1.033-3.324,1.929-4.456c0.895-1.131,2.188-2.002,3.882-2.611c1.692-0.611,3.653-0.916,5.884-0.916
		c2.213,0,4.012,0.261,5.396,0.781c1.383,0.521,2.4,1.176,3.052,1.965c0.65,0.79,1.106,1.787,1.367,2.991
		c0.146,0.749,0.22,2.1,0.22,4.053v5.859c0,4.085,0.093,6.669,0.28,7.751c0.188,1.083,0.558,2.121,1.111,3.113h-4.59
		C1421.67,359.089,1421.377,358.022,1421.247,356.802z M1420.881,346.987c-1.596,0.651-3.988,1.204-7.178,1.66
		c-1.807,0.261-3.085,0.554-3.833,0.879c-0.749,0.325-1.327,0.802-1.733,1.429c-0.407,0.627-0.61,1.322-0.61,2.087
		c0,1.172,0.443,2.148,1.33,2.93s2.186,1.172,3.895,1.172c1.692,0,3.198-0.37,4.517-1.11s2.286-1.754,2.905-3.04
		c0.472-0.993,0.708-2.458,0.708-4.395V346.987z"/>
	<path fill="#FFFFFF" d="M1431.17,360v-35.791h4.395v20.41l10.4-10.547h5.688l-9.912,9.619L1452.654,360h-5.42l-8.569-13.257
		l-3.101,2.979V360H1431.17z"/>
	<path fill="#FFFFFF" d="M1455.609,329.263v-5.054h4.395v5.054H1455.609z M1455.609,360v-25.928h4.395V360H1455.609z"/>
	<path fill="#FFFFFF" d="M1474.263,370.522c-2.426-3.06-4.477-6.641-6.152-10.742c-1.677-4.102-2.515-8.35-2.515-12.744
		c0-3.874,0.626-7.585,1.88-11.133c1.465-4.118,3.727-8.22,6.787-12.305h3.149c-1.97,3.386-3.271,5.803-3.906,7.251
		c-0.993,2.246-1.774,4.59-2.344,7.031c-0.7,3.044-1.05,6.104-1.05,9.18c0,7.829,2.433,15.649,7.3,23.462H1474.263z"/>
	<path fill="#FFFFFF" d="M1479.414,360v-25.928h3.955v3.687c1.904-2.849,4.655-4.272,8.252-4.272c1.563,0,2.999,0.281,4.31,0.842
		c1.31,0.563,2.29,1.299,2.941,2.21s1.106,1.994,1.367,3.247c0.163,0.814,0.244,2.238,0.244,4.272V360h-4.395v-15.771
		c0-1.79-0.171-3.129-0.513-4.016s-0.948-1.596-1.818-2.125c-0.871-0.528-1.893-0.793-3.064-0.793c-1.872,0-3.487,0.594-4.846,1.782
		c-1.359,1.188-2.039,3.442-2.039,6.763V360H1479.414z"/>
	<path fill="#FFFFFF" d="M1506.216,329.263v-5.054h4.395v5.054H1506.216z M1506.216,360v-25.928h4.395V360H1506.216z"/>
	<path fill="#FFFFFF" d="M1533.414,350.503l4.321,0.562c-0.472,2.979-1.681,5.311-3.625,6.994c-1.945,1.686-4.334,2.527-7.166,2.527
		c-3.548,0-6.4-1.16-8.557-3.479c-2.157-2.32-3.235-5.645-3.235-9.974c0-2.8,0.464-5.249,1.392-7.349s2.34-3.674,4.236-4.725
		c1.896-1.049,3.959-1.574,6.188-1.574c2.815,0,5.119,0.713,6.909,2.137s2.938,3.446,3.442,6.066l-4.272,0.659
		c-0.407-1.741-1.127-3.052-2.16-3.931c-1.034-0.879-2.283-1.318-3.748-1.318c-2.214,0-4.012,0.793-5.396,2.381
		c-1.384,1.586-2.075,4.098-2.075,7.531c0,3.483,0.667,6.014,2.002,7.593s3.076,2.368,5.225,2.368c1.726,0,3.166-0.529,4.321-1.587
		S1533.104,352.7,1533.414,350.503z"/>
	<path fill="#FFFFFF" d="M1541.13,360v-35.791h4.395v12.842c2.051-2.376,4.639-3.564,7.764-3.564c1.921,0,3.589,0.379,5.005,1.135
		c1.416,0.758,2.43,1.803,3.04,3.138s0.915,3.271,0.915,5.811V360h-4.395v-16.431c0-2.197-0.476-3.796-1.428-4.798
		c-0.952-1-2.3-1.501-4.041-1.501c-1.302,0-2.526,0.338-3.674,1.013c-1.147,0.676-1.966,1.592-2.454,2.747s-0.732,2.751-0.732,4.785
		V360H1541.13z"/>
	<path fill="#FFFFFF" d="M1567.957,329.263v-5.054h4.395v5.054H1567.957z M1567.957,360v-25.928h4.395V360H1567.957z"/>
	<path fill="#FFFFFF" d="M1595.188,360v-3.271c-1.645,2.572-4.062,3.857-7.251,3.857c-2.067,0-3.968-0.57-5.701-1.709
		s-3.076-2.73-4.028-4.773c-0.952-2.042-1.428-4.39-1.428-7.043c0-2.588,0.431-4.936,1.294-7.043
		c0.862-2.107,2.156-3.724,3.882-4.847c1.725-1.123,3.653-1.685,5.786-1.685c1.563,0,2.954,0.33,4.175,0.988
		c1.221,0.66,2.213,1.519,2.979,2.576v-12.842h4.37V360H1595.188z M1581.296,347.061c0,3.32,0.699,5.803,2.1,7.446
		c1.399,1.644,3.052,2.466,4.956,2.466c1.92,0,3.552-0.785,4.895-2.355s2.015-3.968,2.015-7.19c0-3.548-0.684-6.152-2.051-7.813
		s-3.052-2.49-5.054-2.49c-1.953,0-3.585,0.798-4.896,2.393S1581.296,343.627,1581.296,347.061z"/>
	<path fill="#FFFFFF" d="M1623.018,351.65l4.541,0.562c-0.716,2.653-2.043,4.712-3.979,6.177s-4.411,2.197-7.422,2.197
		c-3.792,0-6.799-1.168-9.021-3.504c-2.222-2.335-3.333-5.61-3.333-9.826c0-4.361,1.123-7.747,3.369-10.156
		c2.246-2.408,5.159-3.613,8.74-3.613c3.467,0,6.299,1.18,8.496,3.54s3.296,5.681,3.296,9.961c0,0.261-0.008,0.651-0.024,1.172
		h-19.336c0.163,2.849,0.969,5.029,2.417,6.543s3.255,2.271,5.42,2.271c1.611,0,2.986-0.423,4.126-1.27
		C1621.447,354.857,1622.351,353.506,1623.018,351.65z M1608.589,344.546h14.478c-0.195-2.181-0.749-3.816-1.66-4.907
		c-1.399-1.692-3.215-2.539-5.444-2.539c-2.019,0-3.715,0.676-5.09,2.026C1609.496,340.477,1608.735,342.283,1608.589,344.546z"/>
	<path fill="#FFFFFF" d="M1632.222,360v-25.928h3.955v3.687c1.904-2.849,4.654-4.272,8.252-4.272c1.563,0,2.998,0.281,4.309,0.842
		c1.311,0.563,2.291,1.299,2.942,2.21c0.65,0.911,1.106,1.994,1.367,3.247c0.162,0.814,0.244,2.238,0.244,4.272V360h-4.395v-15.771
		c0-1.79-0.171-3.129-0.513-4.016s-0.948-1.596-1.819-2.125c-0.871-0.528-1.892-0.793-3.063-0.793c-1.872,0-3.487,0.594-4.847,1.782
		s-2.038,3.442-2.038,6.763V360H1632.222z"/>
	<path fill="#FFFFFF" d="M1695.796,355.776V360h-23.657c-0.033-1.058,0.138-2.075,0.513-3.052c0.602-1.611,1.566-3.198,2.893-4.761
		s3.243-3.369,5.75-5.42c3.89-3.189,6.519-5.717,7.886-7.58s2.051-3.626,2.051-5.286c0-1.741-0.623-3.21-1.868-4.407
		c-1.245-1.195-2.868-1.794-4.87-1.794c-2.116,0-3.809,0.635-5.078,1.904s-1.913,3.027-1.929,5.273l-4.517-0.464
		c0.309-3.369,1.473-5.937,3.491-7.703c2.018-1.766,4.728-2.648,8.13-2.648c3.434,0,6.152,0.952,8.154,2.856s3.003,4.265,3.003,7.08
		c0,1.433-0.293,2.841-0.879,4.224c-0.586,1.384-1.559,2.84-2.918,4.37s-3.617,3.63-6.774,6.299
		c-2.637,2.214-4.33,3.716-5.078,4.505c-0.749,0.789-1.367,1.582-1.855,2.38H1695.796z"/>
	<path fill="#FFFFFF" d="M1699.416,328.896v-4.224h23.169v3.418c-2.279,2.425-4.537,5.647-6.775,9.668s-3.967,8.154-5.188,12.402
		c-0.879,2.995-1.44,6.274-1.685,9.839h-4.517c0.049-2.815,0.602-6.217,1.66-10.205c1.058-3.987,2.575-7.832,4.553-11.535
		s4.081-6.824,6.312-9.363H1699.416z"/>
	<path fill="#FFFFFF" d="M1729.812,370.522h-3.149c4.866-7.813,7.3-15.633,7.3-23.462c0-3.06-0.35-6.096-1.05-9.106
		c-0.554-2.441-1.326-4.785-2.319-7.031c-0.635-1.465-1.945-3.906-3.931-7.324h3.149c3.06,4.085,5.322,8.187,6.787,12.305
		c1.253,3.548,1.88,7.259,1.88,11.133c0,4.395-0.842,8.643-2.526,12.744S1732.221,367.463,1729.812,370.522z"/>
</g>
</svg>
