<?xml version="1.0" encoding="utf-8"?>
<!-- Generator: Adobe Illustrator 16.0.3, SVG Export Plug-In . SVG Version: 6.00 Build 0)  -->
<!DOCTYPE svg PUBLIC "-//W3C//DTD SVG 1.1//EN" "http://www.w3.org/Graphics/SVG/1.1/DTD/svg11.dtd">
<svg version="1.1" id="レイヤー_1" xmlns="http://www.w3.org/2000/svg" xmlns:xlink="http://www.w3.org/1999/xlink" x="0px"
	 y="0px" width="100px" height="100px" viewBox="0 0 100 100" enable-background="new 0 0 100 100" xml:space="preserve">
<g>
	<circle fill="#6DAA6D" cx="50" cy="50" r="49.207"/>
	<g>
		<path fill="#D8D8D8" d="M12.863,42.051l5.228,5.227c17.576-17.576,46.074-17.576,63.651,0l5.227-5.227
			C66.505,21.588,33.328,21.588,12.863,42.051L12.863,42.051z"/>
		<path fill="#D8D8D8" d="M76.514,52.505c-14.69-14.689-38.507-14.689-53.197-0.001l5.227,5.228
			c11.804-11.804,30.942-11.804,42.744-0.001v0.001L76.514,52.505L76.514,52.505z"/>
		<path fill="#D8D8D8" d="M33.77,62.958l5.228,5.228c6.029-6.029,15.807-6.029,21.836,0.001l5.227-5.229
			C57.143,54.042,42.687,54.042,33.77,62.958L33.77,62.958z"/>
		<path fill="#D8D8D8" d="M54.275,75.208c0,2.409-1.953,4.36-4.36,4.36c-2.407,0-4.359-1.951-4.359-4.36
			c0-2.405,1.952-4.356,4.359-4.356C52.322,70.852,54.275,72.803,54.275,75.208L54.275,75.208z"/>
	</g>
</g>
</svg>
